With: Aaron Eckhart, Carrie-Anne Moss and Ben Kingsley

FBI-agent Thomas Mackelway onderzoekt de zaak van een vermoorde seriemoordenaar. Hij ontdekt dat de voormalige FBI-agent Benjamin O'Ryan het recht in eigen handen heeft genomen en zelf achter de seriemoordenaars aanzit, maar niet om ze gevangen te nemen. Het spoor leidt naar de "Suspect Zero", een seriemoordenaar die al meer dan honderd slachtoffers heeft gemaakt. Thomas moet zorgen dat hij "Suspect Zero" eerder te pakken heeft dan O'Ryan om te voorkomen dat O'Ryan verandert in datgene dat hij zelf het meest veracht... een seriemoordenaar.

A mysterious serial killer is hunting other serial killers - and one FBI agent suspects there may be more to the vigilante than they imagine. 

------------------------ Dutch Friends ------------------------
---------------------------------------------------------------
- Bezoek ook eens mijn vrienden op:  http://www.Film-Test.nl --
----- voor mijn Nederlandse Sync. ondertitels ---- en meer ----
------- http://www.Film-Test.nl ---- voor Films en meer -------
---------------------------------------------------------------

General:

Complete name                    : Suspect ZeroSuspect Zero.avi
Format                           : AVI
Format/Info                      : Audio Video Interleave
File size                        : 1.75 GiB
Duration                         : 1h 35mn
Overall bit rate                 : 2 623 Kbps

Video:

Format                           : MPEG-4 Visual
Format profile                   : Simple@L3
Format settings, BVOP            : No
Format settings, QPel            : No
Format settings, GMC             : No warppoints
Format settings, Matrix          : Default (H.263)
Codec ID                         : XVID
Codec ID/Hint                    : XviD
Duration                         : 1h 35mn
Bit rate                         : 2 164 Kbps
Width                            : 704 pixels
Height                           : 396 pixels
Display aspect ratio             : 16:9
Frame rate                       : 25.000 fps
Color space                      : YUV
Chroma subsampling               : 4:2:0
Bit depth                        : 8 bits
Scan type                        : Progressive
Compression mode                 : Lossy
Bits/(Pixel*Frame)               : 0.311
Stream size                      : 1.44 GiB (83%)
Writing library                  : XviD 1.1.2 (UTC 2006-11-01)

Audio:

Format                           : AC-3
Format/Info                      : Audio Coding 3
Mode extension                   : CM (complete main)
Codec ID                         : 2000
Duration                         : 1h 35mn
Bit rate mode                    : Constant
Bit rate                         : 448 Kbps
Channel(s)                       : 6 channels
Channel positions                : Front: L C R, Side: L R, LFE
Sampling rate                    : 48.0 KHz
Bit depth                        : 16 bits
Compression mode                 : Lossy
Stream size                      : 306 MiB (17%)
Alignment                        : Aligned on interleaves
Interleave, duration             : 32 ms (0.80 video frame)


